<?xml version="1.0" encoding="UTF-8" standalone="no"?>
<svg
   height="16"
   width="15.5"
   viewBox="0 0 496 512"
   version="1.1"
   id="svg1"
   sodipodi:docname="logo-github.svg"
   inkscape:version="1.3.2 (091e20e, 2023-11-25, custom)"
   xmlns:inkscape="http://www.inkscape.org/namespaces/inkscape"
   xmlns:sodipodi="http://sodipodi.sourceforge.net/DTD/sodipodi-0.dtd"
   xmlns="http://www.w3.org/2000/svg"
   xmlns:svg="http://www.w3.org/2000/svg">
  <defs
     id="defs1" />
  <sodipodi:namedview
     id="namedview1"
     pagecolor="#ffffff"
     bordercolor="#000000"
     borderopacity="0.25"
     inkscape:showpageshadow="2"
     inkscape:pageopacity="0.0"
     inkscape:pagecheckerboard="0"
     inkscape:deskcolor="#d1d1d1"
     inkscape:zoom="73.3125"
     inkscape:cx="7.7544757"
     inkscape:cy="8"
     inkscape:window-width="1419"
     inkscape:window-height="1237"
     inkscape:window-x="1760"
     inkscape:window-y="83"
     inkscape:window-maximized="0"
     inkscape:current-layer="svg1" />
  <!--!Font Awesome Free 6.5.1 by @fontawesome - https://fontawesome.com License - https://fontawesome.com/license/free Copyright 2023 Fonticons, Inc.-->
  <path
     opacity="1"
     fill="#1E3050"
     d="M165.9 397.4c0 2-2.3 3.6-5.2 3.6-3.3 .3-5.6-1.3-5.6-3.6 0-2 2.3-3.6 5.2-3.6 3-.3 5.6 1.3 5.6 3.6zm-31.1-4.5c-.7 2 1.3 4.3 4.3 4.9 2.6 1 5.6 0 6.2-2s-1.3-4.3-4.3-5.2c-2.6-.7-5.5 .3-6.2 2.3zm44.2-1.7c-2.9 .7-4.9 2.6-4.6 4.9 .3 2 2.9 3.3 5.9 2.6 2.9-.7 4.9-2.6 4.6-4.6-.3-1.9-3-3.2-5.9-2.9zM244.8 8C106.1 8 0 113.3 0 252c0 110.9 69.8 205.8 169.5 239.2 12.8 2.3 17.3-5.6 17.3-12.1 0-6.2-.3-40.4-.3-61.4 0 0-70 15-84.7-29.8 0 0-11.4-29.1-27.8-36.6 0 0-22.9-15.7 1.6-15.4 0 0 24.9 2 38.6 25.8 21.9 38.6 58.6 27.5 72.9 20.9 2.3-16 8.8-27.1 16-33.7-55.9-6.2-112.3-14.3-112.3-110.5 0-27.5 7.6-41.3 23.6-58.9-2.6-6.5-11.1-33.3 2.6-67.9 20.9-6.5 69 27 69 27 20-5.6 41.5-8.5 62.8-8.5s42.8 2.9 62.8 8.5c0 0 48.1-33.6 69-27 13.7 34.7 5.2 61.4 2.6 67.9 16 17.7 25.8 31.5 25.8 58.9 0 96.5-58.9 104.2-114.8 110.5 9.2 7.9 17 22.9 17 46.4 0 33.7-.3 75.4-.3 83.6 0 6.5 4.6 14.4 17.3 12.1C428.2 457.8 496 362.9 496 252 496 113.3 383.5 8 244.8 8zM97.2 352.9c-1.3 1-1 3.3 .7 5.2 1.6 1.6 3.9 2.3 5.2 1 1.3-1 1-3.3-.7-5.2-1.6-1.6-3.9-2.3-5.2-1zm-10.8-8.1c-.7 1.3 .3 2.9 2.3 3.9 1.6 1 3.6 .7 4.3-.7 .7-1.3-.3-2.9-2.3-3.9-2-.6-3.6-.3-4.3 .7zm32.4 35.6c-1.6 1.3-1 4.3 1.3 6.2 2.3 2.3 5.2 2.6 6.5 1 1.3-1.3 .7-4.3-1.3-6.2-2.2-2.3-5.2-2.6-6.5-1zm-11.4-14.7c-1.6 1-1.6 3.6 0 5.9 1.6 2.3 4.3 3.3 5.6 2.3 1.6-1.3 1.6-3.9 0-6.2-1.4-2.3-4-3.3-5.6-2z"
     id="path1" />
  <path
     style="fill:#161822;fill-opacity:0;stroke-width:0.0136402"
     d="M 5.2981017,15.33928 C 5.0774609,15.277011 4.6254936,15.088293 4.287928,14.917485 2.1468313,13.834083 0.62894791,11.818101 0.15793855,9.4322251 -0.03871282,8.4360968 -0.03871008,7.3045478 0.15794612,6.3086104 0.66395582,3.7459961 2.3964939,1.6827555 4.8081841,0.77074638 5.5661797,0.48410143 6.3102401,0.3262559 7.1611253,0.27159168 7.471294,0.25166522 8.147713,0.26294877 8.4364876,0.29286638 9.5058121,0.40365046 10.428597,0.6691512 11.328218,1.124866 c 1.821115,0.9225093 3.167275,2.4780124 3.789688,4.3790298 0.676428,2.0659916 0.42857,4.4315387 -0.666956,6.3653682 -0.845551,1.492573 -2.179722,2.669341 -3.736542,3.295711 -0.361084,0.145278 -0.474781,0.180294 -0.585421,0.180294 -0.1741104,0 -0.299845,-0.06936 -0.364787,-0.201231 L 9.73231,15.079288 9.72481,13.524301 9.71731,11.969313 9.68095,11.805631 c -0.080075,-0.3605 -0.204264,-0.620818 -0.3881268,-0.813579 -0.050074,-0.0525 -0.069279,-0.08121 -0.05679,-0.0849 0.010378,-0.0031 0.1569767,-0.02227 0.3257746,-0.04267 1.0879382,-0.131499 1.7292522,-0.340613 2.2160062,-0.722575 0.672123,-0.5274244 1.002259,-1.3937059 1.003849,-2.6341106 4.46e-4,-0.3485985 -0.01827,-0.5252376 -0.07865,-0.742234 -0.1034,-0.3716473 -0.251299,-0.6163076 -0.665462,-1.1008433 l -0.04903,-0.057361 0.03535,-0.1159005 c 0.144775,-0.4746447 0.149242,-1.0378379 0.01256,-1.5835293 -0.03706,-0.1479696 -0.120865,-0.4002039 -0.138984,-0.4183229 -0.0062,-0.00618 -0.04779,-0.018056 -0.09245,-0.026383 C 11.453204,3.3976404 10.742824,3.6768375 9.9121235,4.20717 L 9.7295883,4.3237022 9.6621468,4.3036743 C 9.4299803,4.2347282 8.98572,4.1515639 8.5932535,4.1035804 8.3684966,4.0761013 8.2793142,4.0727404 7.7749361,4.0727404 c -0.5043781,0 -0.5935606,0.00336 -0.8183175,0.03084 C 6.5643398,4.151541 6.1198916,4.2347283 5.8879914,4.3035953 L 5.8208161,4.3235441 5.6418658,4.20964 C 5.0240342,3.8163815 4.4630785,3.5548125 4.0716113,3.477443 3.9737329,3.4580984 3.7782939,3.4534801 3.7059196,3.4688018 3.6439393,3.4819229 3.6263772,3.5160513 3.5514798,3.7689259 3.3775619,4.3561204 3.3684418,4.9749067 3.5260876,5.4917466 l 0.03544,0.1161893 -0.094227,0.1116331 c -0.387122,0.4586323 -0.5446603,0.7909464 -0.6095215,1.2857358 -0.024234,0.18487 -0.027746,0.7307388 -0.00631,0.981055 0.1077471,1.2582941 0.5705484,2.0444962 1.4490611,2.4616502 0.4389852,0.208448 0.8999296,0.322793 1.6807164,0.416927 0.1650469,0.0199 0.3083389,0.0387 0.3184267,0.04178 0.012215,0.0037 -0.00428,0.03178 -0.049366,0.08397 -0.074872,0.08665 -0.1718363,0.232268 -0.225242,0.338247 -0.053221,0.105613 -0.1295112,0.335317 -0.1585064,0.477251 -0.014342,0.07021 -0.029813,0.133694 -0.034378,0.141081 -0.010933,0.01769 -0.1945337,0.08808 -0.337425,0.129359 -0.2844788,0.08219 -0.607468,0.10041 -0.8616435,0.04861 C 4.1977537,12.036521 3.862463,11.776183 3.5802688,11.307758 3.3259668,10.885632 2.9752689,10.627689 2.5029838,10.5154 2.307027,10.46881 2.0579992,10.49786 2.0183574,10.57193 c -0.055247,0.10323 0.083388,0.283259 0.3360617,0.436407 0.2082915,0.126246 0.4020605,0.340272 0.5826937,0.643609 0.088383,0.148421 0.2066838,0.391115 0.2609207,0.535276 0.1886111,0.501327 0.6384228,0.810255 1.3305257,0.913796 0.3115033,0.0466 0.7649648,0.04103 1.1354602,-0.01395 0.073096,-0.01085 0.139081,-0.01972 0.1466325,-0.01972 0.00909,0 0.01373,0.335865 0.01373,0.993308 0,1.090585 0.00198,1.062671 -0.0825,1.165156 -0.087668,0.106357 -0.2877261,0.157508 -0.4437798,0.113467 z"
     id="path2"
     transform="scale(32)" />
  <path
     style="fill:#161822;fill-opacity:0;stroke-width:0.0136402"
     d="M 5.1560102,15.29255 C 3.7082592,14.764293 2.5046205,13.872454 1.5821605,12.644501 0.80428059,11.60901 0.27518734,10.327568 0.08970572,9.029838 0.02912017,8.6059488 0.01464319,8.3818122 0.01481876,7.8704177 0.01503806,7.2316216 0.0508186,6.8519864 0.16458995,6.2813299 0.52973486,4.4498294 1.5311581,2.8532335 3.0008525,1.7594005 c 1.717471,-1.27824287 3.936806,-1.7682137 6.172208,-1.36266125 0.2709014,0.0491476 0.7552547,0.17264825 1.0350345,0.26391364 0.666888,0.21754125 1.359397,0.55393581 1.938538,0.94166711 1.130867,0.7571096 2.010946,1.7660903 2.599161,2.9798503 0.378567,0.7811601 0.611256,1.6050837 0.709078,2.5107538 0.02997,0.2774846 0.04179,1.0110168 0.0211,1.3097187 -0.07829,1.1302225 -0.350806,2.1422952 -0.83917,3.1165392 -0.380482,0.75903 -0.835241,1.388705 -1.438939,1.992402 -0.432028,0.432029 -0.827934,0.748679 -1.33085,1.06443 -0.43983,0.276141 -0.961789,0.529428 -1.459506,0.70824 -0.143401,0.05152 -0.178049,0.05886 -0.279625,0.05928 -0.1872639,7.71e-4 -0.3017437,-0.06604 -0.3709976,-0.216511 l -0.031389,-0.0682 0.00497,-1.404945 c 0.00362,-1.023559 5.392e-4,-1.449378 -0.011358,-1.568628 -0.047772,-0.478852 -0.1882225,-0.837757 -0.4282561,-1.094362 -0.043997,-0.04703 -0.071249,-0.08552 -0.060558,-0.08552 0.048341,0 0.6790957,-0.0844 0.8598017,-0.11505 0.676298,-0.114703 1.168586,-0.289973 1.564401,-0.556974 0.206122,-0.139042 0.467782,-0.4029983 0.605267,-0.6105809 C 12.557099,9.1738301 12.72376,8.6082798 12.773465,7.8795598 12.840379,6.898485 12.689535,6.4188432 12.099969,5.7380514 12.03936,5.6680632 11.990954,5.603613 11.9924,5.5948288 c 0.0014,-0.00878 0.01848,-0.068145 0.03784,-0.1319132 0.06594,-0.2171381 0.09118,-0.3950903 0.09867,-0.6956522 0.0077,-0.3092542 -0.0096,-0.4945481 -0.07252,-0.77593 C 12.01456,3.8042498 11.920604,3.5134396 11.892822,3.485081 11.876862,3.468787 11.834692,3.464767 11.685747,3.465337 11.524556,3.4659544 11.478931,3.471397 11.355495,3.50472 10.969726,3.608867 10.396351,3.8888404 9.898865,4.2159784 L 9.7395806,4.3207232 9.5006513,4.2632792 C 8.3742235,3.9924602 7.1753835,3.9925242 6.0484544,4.2634634 L 5.8087587,4.3210916 5.686988,4.2395204 C 5.1225315,3.8614044 4.4652953,3.5528035 4.0648567,3.4778596 3.9157185,3.4499476 3.6871228,3.4542606 3.6565284,3.4855596 3.6291584,3.5135636 3.5349265,3.8059144 3.4935066,3.9913301 3.4411636,4.2256423 3.4168676,4.4451788 3.4169916,4.6827073 3.4171572,4.9993349 3.4547606,5.2699354 3.5311613,5.5042875 L 3.5641643,5.6055222 3.437517,5.7558712 C 2.9590536,6.3238813 2.8105301,6.788055 2.8351149,7.6385337 c 0.023943,0.8282621 0.1783278,1.4568798 0.4754613,1.9359577 0.1949204,0.3142761 0.4665374,0.5797716 0.7847575,0.7670716 0.3592002,0.211421 0.7769057,0.348132 1.3880423,0.454294 0.1475959,0.02564 0.7766536,0.109514 0.8213498,0.109514 0.010022,0 -0.01622,0.0406 -0.058315,0.09022 -0.1896951,0.223611 -0.3229962,0.514314 -0.3841329,0.837715 l -0.022842,0.120828 -0.1302897,0.0501 C 5.4619262,12.099294 5.160321,12.160256 4.9377655,12.160158 4.8060524,12.1601 4.6037856,12.127538 4.4770779,12.085988 4.1387493,11.975042 3.8632089,11.749716 3.6421845,11.40324 3.4822194,11.152479 3.4350875,11.087395 3.3418585,10.98852 3.1603616,10.796032 2.9109482,10.641612 2.6325661,10.549376 2.5058384,10.507388 2.4831029,10.50414 2.3120205,10.503583 c -0.151545,-4.93e-4 -0.1929756,0.0038 -0.2340357,0.02423 -0.055346,0.02754 -0.085708,0.08305 -0.072938,0.133349 0.023512,0.09261 0.1977811,0.261849 0.3733951,0.36262 0.191206,0.109719 0.432513,0.396261 0.6182145,0.734106 0.074119,0.134844 0.175031,0.349955 0.195165,0.416027 0.00572,0.01875 0.031903,0.07707 0.058195,0.129582 0.235654,0.470689 0.7000277,0.738658 1.4086228,0.812852 0.2143033,0.02244 0.7730115,0.0077 0.9884196,-0.02607 0.090026,-0.01412 0.1650649,-0.02469 0.1667541,-0.0235 0.00169,0.0012 0.00723,0.437615 0.012311,0.969828 0.00832,0.870842 0.00702,0.975252 -0.012944,1.04355 -0.030394,0.103977 -0.086247,0.175759 -0.1739931,0.223615 -0.063747,0.03477 -0.090936,0.04091 -0.1967317,0.04442 -0.1159474,0.0039 -0.1318483,7.67e-4 -0.286445,-0.05564 z"
     id="path3"
     transform="scale(32)" />
  <path
     style="fill:#db1822;fill-opacity:0;stroke-width:0.0136402"
     d="M 5.1560102,15.29255 C 3.7082592,14.764293 2.5046205,13.872454 1.5821605,12.644501 0.80428059,11.60901 0.27518734,10.327568 0.08970572,9.029838 0.02912017,8.6059488 0.01464319,8.3818122 0.01481876,7.8704177 0.01503806,7.2316216 0.0508186,6.8519864 0.16458995,6.2813299 0.52973486,4.4498294 1.5311581,2.8532335 3.0008525,1.7594005 c 1.717471,-1.27824287 3.936806,-1.7682137 6.172208,-1.36266125 0.2709014,0.0491476 0.7552547,0.17264825 1.0350345,0.26391364 0.666888,0.21754125 1.359397,0.55393581 1.938538,0.94166711 1.130867,0.7571096 2.010946,1.7660903 2.599161,2.9798503 0.378567,0.7811601 0.611256,1.6050837 0.709078,2.5107538 0.02997,0.2774846 0.04179,1.0110168 0.0211,1.3097187 -0.07829,1.1302225 -0.350806,2.1422952 -0.83917,3.1165392 -0.380482,0.75903 -0.835241,1.388705 -1.438939,1.992402 -0.432028,0.432029 -0.827934,0.748679 -1.33085,1.06443 -0.43983,0.276141 -0.961789,0.529428 -1.459506,0.70824 -0.143401,0.05152 -0.178049,0.05886 -0.279625,0.05928 -0.1872639,7.71e-4 -0.3017437,-0.06604 -0.3709976,-0.216511 l -0.031389,-0.0682 0.00497,-1.404945 c 0.00362,-1.023559 5.392e-4,-1.449378 -0.011358,-1.568628 -0.047772,-0.478852 -0.1882225,-0.837757 -0.4282561,-1.094362 -0.043997,-0.04703 -0.071249,-0.08552 -0.060558,-0.08552 0.048341,0 0.6790957,-0.0844 0.8598017,-0.11505 0.676298,-0.114703 1.168586,-0.289973 1.564401,-0.556974 0.206122,-0.139042 0.467782,-0.4029983 0.605267,-0.6105809 C 12.557099,9.1738301 12.72376,8.6082798 12.773465,7.8795598 12.840379,6.898485 12.689535,6.4188432 12.099969,5.7380514 12.03936,5.6680632 11.990954,5.603613 11.9924,5.5948288 c 0.0014,-0.00878 0.01848,-0.068145 0.03784,-0.1319132 0.06594,-0.2171381 0.09118,-0.3950903 0.09867,-0.6956522 0.0077,-0.3092542 -0.0096,-0.4945481 -0.07252,-0.77593 C 12.01456,3.8042498 11.920604,3.5134396 11.892822,3.485081 11.876862,3.468787 11.834692,3.464767 11.685747,3.465337 11.524556,3.4659544 11.478931,3.471397 11.355495,3.50472 10.969726,3.608867 10.396351,3.8888404 9.898865,4.2159784 L 9.7395806,4.3207232 9.5006513,4.2632792 C 8.3742235,3.9924602 7.1753835,3.9925242 6.0484544,4.2634634 L 5.8087587,4.3210916 5.686988,4.2395204 C 5.1225315,3.8614044 4.4652953,3.5528035 4.0648567,3.4778596 3.9157185,3.4499476 3.6871228,3.4542606 3.6565284,3.4855596 3.6291584,3.5135636 3.5349265,3.8059144 3.4935066,3.9913301 3.4411636,4.2256423 3.4168676,4.4451788 3.4169916,4.6827073 3.4171572,4.9993349 3.4547606,5.2699354 3.5311613,5.5042875 L 3.5641643,5.6055222 3.437517,5.7558712 C 2.9590536,6.3238813 2.8105301,6.788055 2.8351149,7.6385337 c 0.023943,0.8282621 0.1783278,1.4568798 0.4754613,1.9359577 0.1949204,0.3142761 0.4665374,0.5797716 0.7847575,0.7670716 0.3592002,0.211421 0.7769057,0.348132 1.3880423,0.454294 0.1475959,0.02564 0.7766536,0.109514 0.8213498,0.109514 0.010022,0 -0.01622,0.0406 -0.058315,0.09022 -0.1896951,0.223611 -0.3229962,0.514314 -0.3841329,0.837715 l -0.022842,0.120828 -0.1302897,0.0501 C 5.4619262,12.099294 5.160321,12.160256 4.9377655,12.160158 4.8060524,12.1601 4.6037856,12.127538 4.4770779,12.085988 4.1387493,11.975042 3.8632089,11.749716 3.6421845,11.40324 3.4822194,11.152479 3.4350875,11.087395 3.3418585,10.98852 3.1603616,10.796032 2.9109482,10.641612 2.6325661,10.549376 2.5058384,10.507388 2.4831029,10.50414 2.3120205,10.503583 c -0.151545,-4.93e-4 -0.1929756,0.0038 -0.2340357,0.02423 -0.055346,0.02754 -0.085708,0.08305 -0.072938,0.133349 0.023512,0.09261 0.1977811,0.261849 0.3733951,0.36262 0.191206,0.109719 0.432513,0.396261 0.6182145,0.734106 0.074119,0.134844 0.175031,0.349955 0.195165,0.416027 0.00572,0.01875 0.031903,0.07707 0.058195,0.129582 0.235654,0.470689 0.7000277,0.738658 1.4086228,0.812852 0.2143033,0.02244 0.7730115,0.0077 0.9884196,-0.02607 0.090026,-0.01412 0.1650649,-0.02469 0.1667541,-0.0235 0.00169,0.0012 0.00723,0.437615 0.012311,0.969828 0.00832,0.870842 0.00702,0.975252 -0.012944,1.04355 -0.030394,0.103977 -0.086247,0.175759 -0.1739931,0.223615 -0.063747,0.03477 -0.090936,0.04091 -0.1967317,0.04442 -0.1159474,0.0039 -0.1318483,7.67e-4 -0.286445,-0.05564 z"
     id="path4"
     transform="scale(32)" />
  <path
     style="fill:#db1822;fill-opacity:0;stroke-width:0.0136402"
     d="M 5.1560102,15.29255 C 3.7082592,14.764293 2.5046205,13.872454 1.5821605,12.644501 0.80428059,11.60901 0.27518734,10.327568 0.08970572,9.029838 0.02912017,8.6059488 0.01464319,8.3818122 0.01481876,7.8704177 0.01503806,7.2316216 0.0508186,6.8519864 0.16458995,6.2813299 0.52973486,4.4498294 1.5311581,2.8532335 3.0008525,1.7594005 c 1.717471,-1.27824287 3.936806,-1.7682137 6.172208,-1.36266125 0.2709014,0.0491476 0.7552547,0.17264825 1.0350345,0.26391364 0.666888,0.21754125 1.359397,0.55393581 1.938538,0.94166711 1.130867,0.7571096 2.010946,1.7660903 2.599161,2.9798503 0.378567,0.7811601 0.611256,1.6050837 0.709078,2.5107538 0.02997,0.2774846 0.04179,1.0110168 0.0211,1.3097187 -0.07829,1.1302225 -0.350806,2.1422952 -0.83917,3.1165392 -0.380482,0.75903 -0.835241,1.388705 -1.438939,1.992402 -0.432028,0.432029 -0.827934,0.748679 -1.33085,1.06443 -0.43983,0.276141 -0.961789,0.529428 -1.459506,0.70824 -0.143401,0.05152 -0.178049,0.05886 -0.279625,0.05928 -0.1872639,7.71e-4 -0.3017437,-0.06604 -0.3709976,-0.216511 l -0.031389,-0.0682 0.00497,-1.404945 c 0.00362,-1.023559 5.392e-4,-1.449378 -0.011358,-1.568628 -0.047772,-0.478852 -0.1882225,-0.837757 -0.4282561,-1.094362 -0.043997,-0.04703 -0.071249,-0.08552 -0.060558,-0.08552 0.048341,0 0.6790957,-0.0844 0.8598017,-0.11505 0.676298,-0.114703 1.168586,-0.289973 1.564401,-0.556974 0.206122,-0.139042 0.467782,-0.4029983 0.605267,-0.6105809 C 12.557099,9.1738301 12.72376,8.6082798 12.773465,7.8795598 12.840379,6.898485 12.689535,6.4188432 12.099969,5.7380514 12.03936,5.6680632 11.990954,5.603613 11.9924,5.5948288 c 0.0014,-0.00878 0.01848,-0.068145 0.03784,-0.1319132 0.06594,-0.2171381 0.09118,-0.3950903 0.09867,-0.6956522 0.0077,-0.3092542 -0.0096,-0.4945481 -0.07252,-0.77593 C 12.01456,3.8042498 11.920604,3.5134396 11.892822,3.485081 11.876862,3.468787 11.834692,3.464767 11.685747,3.465337 11.524556,3.4659544 11.478931,3.471397 11.355495,3.50472 10.969726,3.608867 10.396351,3.8888404 9.898865,4.2159784 L 9.7395806,4.3207232 9.5006513,4.2632792 C 8.3742235,3.9924602 7.1753835,3.9925242 6.0484544,4.2634634 L 5.8087587,4.3210916 5.686988,4.2395204 C 5.1225315,3.8614044 4.4652953,3.5528035 4.0648567,3.4778596 3.9157185,3.4499476 3.6871228,3.4542606 3.6565284,3.4855596 3.6291584,3.5135636 3.5349265,3.8059144 3.4935066,3.9913301 3.4411636,4.2256423 3.4168676,4.4451788 3.4169916,4.6827073 3.4171572,4.9993349 3.4547606,5.2699354 3.5311613,5.5042875 L 3.5641643,5.6055222 3.437517,5.7558712 C 2.9590536,6.3238813 2.8105301,6.788055 2.8351149,7.6385337 c 0.023943,0.8282621 0.1783278,1.4568798 0.4754613,1.9359577 0.1949204,0.3142761 0.4665374,0.5797716 0.7847575,0.7670716 0.3592002,0.211421 0.7769057,0.348132 1.3880423,0.454294 0.1475959,0.02564 0.7766536,0.109514 0.8213498,0.109514 0.010022,0 -0.01622,0.0406 -0.058315,0.09022 -0.1896951,0.223611 -0.3229962,0.514314 -0.3841329,0.837715 l -0.022842,0.120828 -0.1302897,0.0501 C 5.4619262,12.099294 5.160321,12.160256 4.9377655,12.160158 4.8060524,12.1601 4.6037856,12.127538 4.4770779,12.085988 4.1387493,11.975042 3.8632089,11.749716 3.6421845,11.40324 3.4822194,11.152479 3.4350875,11.087395 3.3418585,10.98852 3.1603616,10.796032 2.9109482,10.641612 2.6325661,10.549376 2.5058384,10.507388 2.4831029,10.50414 2.3120205,10.503583 c -0.151545,-4.93e-4 -0.1929756,0.0038 -0.2340357,0.02423 -0.055346,0.02754 -0.085708,0.08305 -0.072938,0.133349 0.023512,0.09261 0.1977811,0.261849 0.3733951,0.36262 0.191206,0.109719 0.432513,0.396261 0.6182145,0.734106 0.074119,0.134844 0.175031,0.349955 0.195165,0.416027 0.00572,0.01875 0.031903,0.07707 0.058195,0.129582 0.235654,0.470689 0.7000277,0.738658 1.4086228,0.812852 0.2143033,0.02244 0.7730115,0.0077 0.9884196,-0.02607 0.090026,-0.01412 0.1650649,-0.02469 0.1667541,-0.0235 0.00169,0.0012 0.00723,0.437615 0.012311,0.969828 0.00832,0.870842 0.00702,0.975252 -0.012944,1.04355 -0.030394,0.103977 -0.086247,0.175759 -0.1739931,0.223615 -0.063747,0.03477 -0.090936,0.04091 -0.1967317,0.04442 -0.1159474,0.0039 -0.1318483,7.67e-4 -0.286445,-0.05564 z"
     id="path5"
     transform="scale(32)" />
  <path
     style="fill:#db1822;fill-opacity:0;stroke-width:0.0136402"
     d="M 5.1560102,15.29255 C 3.7082592,14.764293 2.5046205,13.872454 1.5821605,12.644501 0.80428059,11.60901 0.27518734,10.327568 0.08970572,9.029838 0.02912017,8.6059488 0.01464319,8.3818122 0.01481876,7.8704177 0.01503806,7.2316216 0.0508186,6.8519864 0.16458995,6.2813299 0.52973486,4.4498294 1.5311581,2.8532335 3.0008525,1.7594005 c 1.717471,-1.27824287 3.936806,-1.7682137 6.172208,-1.36266125 0.2709014,0.0491476 0.7552547,0.17264825 1.0350345,0.26391364 0.666888,0.21754125 1.359397,0.55393581 1.938538,0.94166711 1.130867,0.7571096 2.010946,1.7660903 2.599161,2.9798503 0.378567,0.7811601 0.611256,1.6050837 0.709078,2.5107538 0.02997,0.2774846 0.04179,1.0110168 0.0211,1.3097187 -0.07829,1.1302225 -0.350806,2.1422952 -0.83917,3.1165392 -0.380482,0.75903 -0.835241,1.388705 -1.438939,1.992402 -0.432028,0.432029 -0.827934,0.748679 -1.33085,1.06443 -0.43983,0.276141 -0.961789,0.529428 -1.459506,0.70824 -0.143401,0.05152 -0.178049,0.05886 -0.279625,0.05928 -0.1872639,7.71e-4 -0.3017437,-0.06604 -0.3709976,-0.216511 l -0.031389,-0.0682 0.00497,-1.404945 c 0.00362,-1.023559 5.392e-4,-1.449378 -0.011358,-1.568628 -0.047772,-0.478852 -0.1882225,-0.837757 -0.4282561,-1.094362 -0.043997,-0.04703 -0.071249,-0.08552 -0.060558,-0.08552 0.048341,0 0.6790957,-0.0844 0.8598017,-0.11505 0.676298,-0.114703 1.168586,-0.289973 1.564401,-0.556974 0.206122,-0.139042 0.467782,-0.4029983 0.605267,-0.6105809 C 12.557099,9.1738301 12.72376,8.6082798 12.773465,7.8795598 12.840379,6.898485 12.689535,6.4188432 12.099969,5.7380514 12.03936,5.6680632 11.990954,5.603613 11.9924,5.5948288 c 0.0014,-0.00878 0.01848,-0.068145 0.03784,-0.1319132 0.06594,-0.2171381 0.09118,-0.3950903 0.09867,-0.6956522 0.0077,-0.3092542 -0.0096,-0.4945481 -0.07252,-0.77593 C 12.01456,3.8042498 11.920604,3.5134396 11.892822,3.485081 11.876862,3.468787 11.834692,3.464767 11.685747,3.465337 11.524556,3.4659544 11.478931,3.471397 11.355495,3.50472 10.969726,3.608867 10.396351,3.8888404 9.898865,4.2159784 L 9.7395806,4.3207232 9.5006513,4.2632792 C 8.3742235,3.9924602 7.1753835,3.9925242 6.0484544,4.2634634 L 5.8087587,4.3210916 5.686988,4.2395204 C 5.1225315,3.8614044 4.4652953,3.5528035 4.0648567,3.4778596 3.9157185,3.4499476 3.6871228,3.4542606 3.6565284,3.4855596 3.6291584,3.5135636 3.5349265,3.8059144 3.4935066,3.9913301 3.4411636,4.2256423 3.4168676,4.4451788 3.4169916,4.6827073 3.4171572,4.9993349 3.4547606,5.2699354 3.5311613,5.5042875 L 3.5641643,5.6055222 3.437517,5.7558712 C 2.9590536,6.3238813 2.8105301,6.788055 2.8351149,7.6385337 c 0.023943,0.8282621 0.1783278,1.4568798 0.4754613,1.9359577 0.1949204,0.3142761 0.4665374,0.5797716 0.7847575,0.7670716 0.3592002,0.211421 0.7769057,0.348132 1.3880423,0.454294 0.1475959,0.02564 0.7766536,0.109514 0.8213498,0.109514 0.010022,0 -0.01622,0.0406 -0.058315,0.09022 -0.1896951,0.223611 -0.3229962,0.514314 -0.3841329,0.837715 l -0.022842,0.120828 -0.1302897,0.0501 C 5.4619262,12.099294 5.160321,12.160256 4.9377655,12.160158 4.8060524,12.1601 4.6037856,12.127538 4.4770779,12.085988 4.1387493,11.975042 3.8632089,11.749716 3.6421845,11.40324 3.4822194,11.152479 3.4350875,11.087395 3.3418585,10.98852 3.1603616,10.796032 2.9109482,10.641612 2.6325661,10.549376 2.5058384,10.507388 2.4831029,10.50414 2.3120205,10.503583 c -0.151545,-4.93e-4 -0.1929756,0.0038 -0.2340357,0.02423 -0.055346,0.02754 -0.085708,0.08305 -0.072938,0.133349 0.023512,0.09261 0.1977811,0.261849 0.3733951,0.36262 0.191206,0.109719 0.432513,0.396261 0.6182145,0.734106 0.074119,0.134844 0.175031,0.349955 0.195165,0.416027 0.00572,0.01875 0.031903,0.07707 0.058195,0.129582 0.235654,0.470689 0.7000277,0.738658 1.4086228,0.812852 0.2143033,0.02244 0.7730115,0.0077 0.9884196,-0.02607 0.090026,-0.01412 0.1650649,-0.02469 0.1667541,-0.0235 0.00169,0.0012 0.00723,0.437615 0.012311,0.969828 0.00832,0.870842 0.00702,0.975252 -0.012944,1.04355 -0.030394,0.103977 -0.086247,0.175759 -0.1739931,0.223615 -0.063747,0.03477 -0.090936,0.04091 -0.1967317,0.04442 -0.1159474,0.0039 -0.1318483,7.67e-4 -0.286445,-0.05564 z"
     id="path6"
     transform="scale(32)" />
  <path
     style="fill:#161822;fill-opacity:0;stroke-width:0.0136402"
     d="M 5.1560102,15.29255 C 3.7082592,14.764293 2.5046205,13.872454 1.5821605,12.644501 0.80428059,11.60901 0.27518734,10.327568 0.08970572,9.029838 0.02912017,8.6059488 0.01464319,8.3818122 0.01481876,7.8704177 0.01503806,7.2316216 0.0508186,6.8519864 0.16458995,6.2813299 0.52973486,4.4498294 1.5311581,2.8532335 3.0008525,1.7594005 c 1.717471,-1.27824287 3.936806,-1.7682137 6.172208,-1.36266125 0.2709014,0.0491476 0.7552547,0.17264825 1.0350345,0.26391364 0.666888,0.21754125 1.359397,0.55393581 1.938538,0.94166711 1.130867,0.7571096 2.010946,1.7660903 2.599161,2.9798503 0.378567,0.7811601 0.611256,1.6050837 0.709078,2.5107538 0.02997,0.2774846 0.04179,1.0110168 0.0211,1.3097187 -0.07829,1.1302225 -0.350806,2.1422952 -0.83917,3.1165392 -0.380482,0.75903 -0.835241,1.388705 -1.438939,1.992402 -0.432028,0.432029 -0.827934,0.748679 -1.33085,1.06443 -0.43983,0.276141 -0.961789,0.529428 -1.459506,0.70824 -0.143401,0.05152 -0.178049,0.05886 -0.279625,0.05928 -0.1872639,7.71e-4 -0.3017437,-0.06604 -0.3709976,-0.216511 l -0.031389,-0.0682 0.00497,-1.404945 c 0.00362,-1.023559 5.392e-4,-1.449378 -0.011358,-1.568628 -0.047772,-0.478852 -0.1882225,-0.837757 -0.4282561,-1.094362 -0.043997,-0.04703 -0.071249,-0.08552 -0.060558,-0.08552 0.048341,0 0.6790957,-0.0844 0.8598017,-0.11505 0.676298,-0.114703 1.168586,-0.289973 1.564401,-0.556974 0.206122,-0.139042 0.467782,-0.4029983 0.605267,-0.6105809 C 12.557099,9.1738301 12.72376,8.6082798 12.773465,7.8795598 12.840379,6.898485 12.689535,6.4188432 12.099969,5.7380514 12.03936,5.6680632 11.990954,5.603613 11.9924,5.5948288 c 0.0014,-0.00878 0.01848,-0.068145 0.03784,-0.1319132 0.06594,-0.2171381 0.09118,-0.3950903 0.09867,-0.6956522 0.0077,-0.3092542 -0.0096,-0.4945481 -0.07252,-0.77593 C 12.01456,3.8042498 11.920604,3.5134396 11.892822,3.485081 11.876862,3.468787 11.834692,3.464767 11.685747,3.465337 11.524556,3.4659544 11.478931,3.471397 11.355495,3.50472 10.969726,3.608867 10.396351,3.8888404 9.898865,4.2159784 L 9.7395806,4.3207232 9.5006513,4.2632792 C 8.3742235,3.9924602 7.1753835,3.9925242 6.0484544,4.2634634 L 5.8087587,4.3210916 5.686988,4.2395204 C 5.1225315,3.8614044 4.4652953,3.5528035 4.0648567,3.4778596 3.9157185,3.4499476 3.6871228,3.4542606 3.6565284,3.4855596 3.6291584,3.5135636 3.5349265,3.8059144 3.4935066,3.9913301 3.4411636,4.2256423 3.4168676,4.4451788 3.4169916,4.6827073 3.4171572,4.9993349 3.4547606,5.2699354 3.5311613,5.5042875 L 3.5641643,5.6055222 3.437517,5.7558712 C 2.9590536,6.3238813 2.8105301,6.788055 2.8351149,7.6385337 c 0.023943,0.8282621 0.1783278,1.4568798 0.4754613,1.9359577 0.1949204,0.3142761 0.4665374,0.5797716 0.7847575,0.7670716 0.3592002,0.211421 0.7769057,0.348132 1.3880423,0.454294 0.1475959,0.02564 0.7766536,0.109514 0.8213498,0.109514 0.010022,0 -0.01622,0.0406 -0.058315,0.09022 -0.1896951,0.223611 -0.3229962,0.514314 -0.3841329,0.837715 l -0.022842,0.120828 -0.1302897,0.0501 C 5.4619262,12.099294 5.160321,12.160256 4.9377655,12.160158 4.8060524,12.1601 4.6037856,12.127538 4.4770779,12.085988 4.1387493,11.975042 3.8632089,11.749716 3.6421845,11.40324 3.4822194,11.152479 3.4350875,11.087395 3.3418585,10.98852 3.1603616,10.796032 2.9109482,10.641612 2.6325661,10.549376 2.5058384,10.507388 2.4831029,10.50414 2.3120205,10.503583 c -0.151545,-4.93e-4 -0.1929756,0.0038 -0.2340357,0.02423 -0.055346,0.02754 -0.085708,0.08305 -0.072938,0.133349 0.023512,0.09261 0.1977811,0.261849 0.3733951,0.36262 0.191206,0.109719 0.432513,0.396261 0.6182145,0.734106 0.074119,0.134844 0.175031,0.349955 0.195165,0.416027 0.00572,0.01875 0.031903,0.07707 0.058195,0.129582 0.235654,0.470689 0.7000277,0.738658 1.4086228,0.812852 0.2143033,0.02244 0.7730115,0.0077 0.9884196,-0.02607 0.090026,-0.01412 0.1650649,-0.02469 0.1667541,-0.0235 0.00169,0.0012 0.00723,0.437615 0.012311,0.969828 0.00832,0.870842 0.00702,0.975252 -0.012944,1.04355 -0.030394,0.103977 -0.086247,0.175759 -0.1739931,0.223615 -0.063747,0.03477 -0.090936,0.04091 -0.1967317,0.04442 -0.1159474,0.0039 -0.1318483,7.67e-4 -0.286445,-0.05564 z"
     id="path7"
     transform="scale(32)" />
  <path
     style="fill:#161822;fill-opacity:0;stroke-width:0.0136402"
     d="M 5.1560102,15.29255 C 3.7082592,14.764293 2.5046205,13.872454 1.5821605,12.644501 0.80428059,11.60901 0.27518734,10.327568 0.08970572,9.029838 0.02912017,8.6059488 0.01464319,8.3818122 0.01481876,7.8704177 0.01503806,7.2316216 0.0508186,6.8519864 0.16458995,6.2813299 0.52973486,4.4498294 1.5311581,2.8532335 3.0008525,1.7594005 c 1.717471,-1.27824287 3.936806,-1.7682137 6.172208,-1.36266125 0.2709014,0.0491476 0.7552547,0.17264825 1.0350345,0.26391364 0.666888,0.21754125 1.359397,0.55393581 1.938538,0.94166711 1.130867,0.7571096 2.010946,1.7660903 2.599161,2.9798503 0.378567,0.7811601 0.611256,1.6050837 0.709078,2.5107538 0.02997,0.2774846 0.04179,1.0110168 0.0211,1.3097187 -0.07829,1.1302225 -0.350806,2.1422952 -0.83917,3.1165392 -0.380482,0.75903 -0.835241,1.388705 -1.438939,1.992402 -0.432028,0.432029 -0.827934,0.748679 -1.33085,1.06443 -0.43983,0.276141 -0.961789,0.529428 -1.459506,0.70824 -0.143401,0.05152 -0.178049,0.05886 -0.279625,0.05928 -0.1872639,7.71e-4 -0.3017437,-0.06604 -0.3709976,-0.216511 l -0.031389,-0.0682 0.00497,-1.404945 c 0.00362,-1.023559 5.392e-4,-1.449378 -0.011358,-1.568628 -0.047772,-0.478852 -0.1882225,-0.837757 -0.4282561,-1.094362 -0.043997,-0.04703 -0.071249,-0.08552 -0.060558,-0.08552 0.048341,0 0.6790957,-0.0844 0.8598017,-0.11505 0.676298,-0.114703 1.168586,-0.289973 1.564401,-0.556974 0.206122,-0.139042 0.467782,-0.4029983 0.605267,-0.6105809 C 12.557099,9.1738301 12.72376,8.6082798 12.773465,7.8795598 12.840379,6.898485 12.689535,6.4188432 12.099969,5.7380514 12.03936,5.6680632 11.990954,5.603613 11.9924,5.5948288 c 0.0014,-0.00878 0.01848,-0.068145 0.03784,-0.1319132 0.06594,-0.2171381 0.09118,-0.3950903 0.09867,-0.6956522 0.0077,-0.3092542 -0.0096,-0.4945481 -0.07252,-0.77593 C 12.01456,3.8042498 11.920604,3.5134396 11.892822,3.485081 11.876862,3.468787 11.834692,3.464767 11.685747,3.465337 11.524556,3.4659544 11.478931,3.471397 11.355495,3.50472 10.969726,3.608867 10.396351,3.8888404 9.898865,4.2159784 L 9.7395806,4.3207232 9.5006513,4.2632792 C 8.3742235,3.9924602 7.1753835,3.9925242 6.0484544,4.2634634 L 5.8087587,4.3210916 5.686988,4.2395204 C 5.1225315,3.8614044 4.4652953,3.5528035 4.0648567,3.4778596 3.9157185,3.4499476 3.6871228,3.4542606 3.6565284,3.4855596 3.6291584,3.5135636 3.5349265,3.8059144 3.4935066,3.9913301 3.4411636,4.2256423 3.4168676,4.4451788 3.4169916,4.6827073 3.4171572,4.9993349 3.4547606,5.2699354 3.5311613,5.5042875 L 3.5641643,5.6055222 3.437517,5.7558712 C 2.9590536,6.3238813 2.8105301,6.788055 2.8351149,7.6385337 c 0.023943,0.8282621 0.1783278,1.4568798 0.4754613,1.9359577 0.1949204,0.3142761 0.4665374,0.5797716 0.7847575,0.7670716 0.3592002,0.211421 0.7769057,0.348132 1.3880423,0.454294 0.1475959,0.02564 0.7766536,0.109514 0.8213498,0.109514 0.010022,0 -0.01622,0.0406 -0.058315,0.09022 -0.1896951,0.223611 -0.3229962,0.514314 -0.3841329,0.837715 l -0.022842,0.120828 -0.1302897,0.0501 C 5.4619262,12.099294 5.160321,12.160256 4.9377655,12.160158 4.8060524,12.1601 4.6037856,12.127538 4.4770779,12.085988 4.1387493,11.975042 3.8632089,11.749716 3.6421845,11.40324 3.4822194,11.152479 3.4350875,11.087395 3.3418585,10.98852 3.1603616,10.796032 2.9109482,10.641612 2.6325661,10.549376 2.5058384,10.507388 2.4831029,10.50414 2.3120205,10.503583 c -0.151545,-4.93e-4 -0.1929756,0.0038 -0.2340357,0.02423 -0.055346,0.02754 -0.085708,0.08305 -0.072938,0.133349 0.023512,0.09261 0.1977811,0.261849 0.3733951,0.36262 0.191206,0.109719 0.432513,0.396261 0.6182145,0.734106 0.074119,0.134844 0.175031,0.349955 0.195165,0.416027 0.00572,0.01875 0.031903,0.07707 0.058195,0.129582 0.235654,0.470689 0.7000277,0.738658 1.4086228,0.812852 0.2143033,0.02244 0.7730115,0.0077 0.9884196,-0.02607 0.090026,-0.01412 0.1650649,-0.02469 0.1667541,-0.0235 0.00169,0.0012 0.00723,0.437615 0.012311,0.969828 0.00832,0.870842 0.00702,0.975252 -0.012944,1.04355 -0.030394,0.103977 -0.086247,0.175759 -0.1739931,0.223615 -0.063747,0.03477 -0.090936,0.04091 -0.1967317,0.04442 -0.1159474,0.0039 -0.1318483,7.67e-4 -0.286445,-0.05564 z"
     id="path8"
     transform="scale(32)" />
  <path
     style="fill:#161822;fill-opacity:0;stroke-width:0.0136402"
     d="M 5.1560102,15.29255 C 3.7082592,14.764293 2.5046205,13.872454 1.5821605,12.644501 0.80428059,11.60901 0.27518734,10.327568 0.08970572,9.029838 0.02912017,8.6059488 0.01464319,8.3818122 0.01481876,7.8704177 0.01503806,7.2316216 0.0508186,6.8519864 0.16458995,6.2813299 0.52973486,4.4498294 1.5311581,2.8532335 3.0008525,1.7594005 c 1.717471,-1.27824287 3.936806,-1.7682137 6.172208,-1.36266125 0.2709014,0.0491476 0.7552547,0.17264825 1.0350345,0.26391364 0.666888,0.21754125 1.359397,0.55393581 1.938538,0.94166711 1.130867,0.7571096 2.010946,1.7660903 2.599161,2.9798503 0.378567,0.7811601 0.611256,1.6050837 0.709078,2.5107538 0.02997,0.2774846 0.04179,1.0110168 0.0211,1.3097187 -0.07829,1.1302225 -0.350806,2.1422952 -0.83917,3.1165392 -0.380482,0.75903 -0.835241,1.388705 -1.438939,1.992402 -0.432028,0.432029 -0.827934,0.748679 -1.33085,1.06443 -0.43983,0.276141 -0.961789,0.529428 -1.459506,0.70824 -0.143401,0.05152 -0.178049,0.05886 -0.279625,0.05928 -0.1872639,7.71e-4 -0.3017437,-0.06604 -0.3709976,-0.216511 l -0.031389,-0.0682 0.00497,-1.404945 c 0.00362,-1.023559 5.392e-4,-1.449378 -0.011358,-1.568628 -0.047772,-0.478852 -0.1882225,-0.837757 -0.4282561,-1.094362 -0.043997,-0.04703 -0.071249,-0.08552 -0.060558,-0.08552 0.048341,0 0.6790957,-0.0844 0.8598017,-0.11505 0.676298,-0.114703 1.168586,-0.289973 1.564401,-0.556974 0.206122,-0.139042 0.467782,-0.4029983 0.605267,-0.6105809 C 12.557099,9.1738301 12.72376,8.6082798 12.773465,7.8795598 12.840379,6.898485 12.689535,6.4188432 12.099969,5.7380514 12.03936,5.6680632 11.990954,5.603613 11.9924,5.5948288 c 0.0014,-0.00878 0.01848,-0.068145 0.03784,-0.1319132 0.06594,-0.2171381 0.09118,-0.3950903 0.09867,-0.6956522 0.0077,-0.3092542 -0.0096,-0.4945481 -0.07252,-0.77593 C 12.01456,3.8042498 11.920604,3.5134396 11.892822,3.485081 11.876862,3.468787 11.834692,3.464767 11.685747,3.465337 11.524556,3.4659544 11.478931,3.471397 11.355495,3.50472 10.969726,3.608867 10.396351,3.8888404 9.898865,4.2159784 L 9.7395806,4.3207232 9.5006513,4.2632792 C 8.3742235,3.9924602 7.1753835,3.9925242 6.0484544,4.2634634 L 5.8087587,4.3210916 5.686988,4.2395204 C 5.1225315,3.8614044 4.4652953,3.5528035 4.0648567,3.4778596 3.9157185,3.4499476 3.6871228,3.4542606 3.6565284,3.4855596 3.6291584,3.5135636 3.5349265,3.8059144 3.4935066,3.9913301 3.4411636,4.2256423 3.4168676,4.4451788 3.4169916,4.6827073 3.4171572,4.9993349 3.4547606,5.2699354 3.5311613,5.5042875 L 3.5641643,5.6055222 3.437517,5.7558712 C 2.9590536,6.3238813 2.8105301,6.788055 2.8351149,7.6385337 c 0.023943,0.8282621 0.1783278,1.4568798 0.4754613,1.9359577 0.1949204,0.3142761 0.4665374,0.5797716 0.7847575,0.7670716 0.3592002,0.211421 0.7769057,0.348132 1.3880423,0.454294 0.1475959,0.02564 0.7766536,0.109514 0.8213498,0.109514 0.010022,0 -0.01622,0.0406 -0.058315,0.09022 -0.1896951,0.223611 -0.3229962,0.514314 -0.3841329,0.837715 l -0.022842,0.120828 -0.1302897,0.0501 C 5.4619262,12.099294 5.160321,12.160256 4.9377655,12.160158 4.8060524,12.1601 4.6037856,12.127538 4.4770779,12.085988 4.1387493,11.975042 3.8632089,11.749716 3.6421845,11.40324 3.4822194,11.152479 3.4350875,11.087395 3.3418585,10.98852 3.1603616,10.796032 2.9109482,10.641612 2.6325661,10.549376 2.5058384,10.507388 2.4831029,10.50414 2.3120205,10.503583 c -0.151545,-4.93e-4 -0.1929756,0.0038 -0.2340357,0.02423 -0.055346,0.02754 -0.085708,0.08305 -0.072938,0.133349 0.023512,0.09261 0.1977811,0.261849 0.3733951,0.36262 0.191206,0.109719 0.432513,0.396261 0.6182145,0.734106 0.074119,0.134844 0.175031,0.349955 0.195165,0.416027 0.00572,0.01875 0.031903,0.07707 0.058195,0.129582 0.235654,0.470689 0.7000277,0.738658 1.4086228,0.812852 0.2143033,0.02244 0.7730115,0.0077 0.9884196,-0.02607 0.090026,-0.01412 0.1650649,-0.02469 0.1667541,-0.0235 0.00169,0.0012 0.00723,0.437615 0.012311,0.969828 0.00832,0.870842 0.00702,0.975252 -0.012944,1.04355 -0.030394,0.103977 -0.086247,0.175759 -0.1739931,0.223615 -0.063747,0.03477 -0.090936,0.04091 -0.1967317,0.04442 -0.1159474,0.0039 -0.1318483,7.67e-4 -0.286445,-0.05564 z"
     id="path9"
     transform="scale(32)" />
  <path
     style="fill:#161822;fill-opacity:0;stroke-width:0.0136402"
     d="M 5.1560102,15.29255 C 3.7082592,14.764293 2.5046205,13.872454 1.5821605,12.644501 0.80428059,11.60901 0.27518734,10.327568 0.08970572,9.029838 0.02912017,8.6059488 0.01464319,8.3818122 0.01481876,7.8704177 0.01503806,7.2316216 0.0508186,6.8519864 0.16458995,6.2813299 0.52973486,4.4498294 1.5311581,2.8532335 3.0008525,1.7594005 c 1.717471,-1.27824287 3.936806,-1.7682137 6.172208,-1.36266125 0.2709014,0.0491476 0.7552547,0.17264825 1.0350345,0.26391364 0.666888,0.21754125 1.359397,0.55393581 1.938538,0.94166711 1.130867,0.7571096 2.010946,1.7660903 2.599161,2.9798503 0.378567,0.7811601 0.611256,1.6050837 0.709078,2.5107538 0.02997,0.2774846 0.04179,1.0110168 0.0211,1.3097187 -0.07829,1.1302225 -0.350806,2.1422952 -0.83917,3.1165392 -0.380482,0.75903 -0.835241,1.388705 -1.438939,1.992402 -0.432028,0.432029 -0.827934,0.748679 -1.33085,1.06443 -0.43983,0.276141 -0.961789,0.529428 -1.459506,0.70824 -0.143401,0.05152 -0.178049,0.05886 -0.279625,0.05928 -0.1872639,7.71e-4 -0.3017437,-0.06604 -0.3709976,-0.216511 l -0.031389,-0.0682 0.00497,-1.404945 c 0.00362,-1.023559 5.392e-4,-1.449378 -0.011358,-1.568628 -0.047772,-0.478852 -0.1882225,-0.837757 -0.4282561,-1.094362 -0.043997,-0.04703 -0.071249,-0.08552 -0.060558,-0.08552 0.048341,0 0.6790957,-0.0844 0.8598017,-0.11505 0.676298,-0.114703 1.168586,-0.289973 1.564401,-0.556974 0.206122,-0.139042 0.467782,-0.4029983 0.605267,-0.6105809 C 12.557099,9.1738301 12.72376,8.6082798 12.773465,7.8795598 12.840379,6.898485 12.689535,6.4188432 12.099969,5.7380514 12.03936,5.6680632 11.990954,5.603613 11.9924,5.5948288 c 0.0014,-0.00878 0.01848,-0.068145 0.03784,-0.1319132 0.06594,-0.2171381 0.09118,-0.3950903 0.09867,-0.6956522 0.0077,-0.3092542 -0.0096,-0.4945481 -0.07252,-0.77593 C 12.01456,3.8042498 11.920604,3.5134396 11.892822,3.485081 11.876862,3.468787 11.834692,3.464767 11.685747,3.465337 11.524556,3.4659544 11.478931,3.471397 11.355495,3.50472 10.969726,3.608867 10.396351,3.8888404 9.898865,4.2159784 L 9.7395806,4.3207232 9.5006513,4.2632792 C 8.3742235,3.9924602 7.1753835,3.9925242 6.0484544,4.2634634 L 5.8087587,4.3210916 5.686988,4.2395204 C 5.1225315,3.8614044 4.4652953,3.5528035 4.0648567,3.4778596 3.9157185,3.4499476 3.6871228,3.4542606 3.6565284,3.4855596 3.6291584,3.5135636 3.5349265,3.8059144 3.4935066,3.9913301 3.4411636,4.2256423 3.4168676,4.4451788 3.4169916,4.6827073 3.4171572,4.9993349 3.4547606,5.2699354 3.5311613,5.5042875 L 3.5641643,5.6055222 3.437517,5.7558712 C 2.9590536,6.3238813 2.8105301,6.788055 2.8351149,7.6385337 c 0.023943,0.8282621 0.1783278,1.4568798 0.4754613,1.9359577 0.1949204,0.3142761 0.4665374,0.5797716 0.7847575,0.7670716 0.3592002,0.211421 0.7769057,0.348132 1.3880423,0.454294 0.1475959,0.02564 0.7766536,0.109514 0.8213498,0.109514 0.010022,0 -0.01622,0.0406 -0.058315,0.09022 -0.1896951,0.223611 -0.3229962,0.514314 -0.3841329,0.837715 l -0.022842,0.120828 -0.1302897,0.0501 C 5.4619262,12.099294 5.160321,12.160256 4.9377655,12.160158 4.8060524,12.1601 4.6037856,12.127538 4.4770779,12.085988 4.1387493,11.975042 3.8632089,11.749716 3.6421845,11.40324 3.4822194,11.152479 3.4350875,11.087395 3.3418585,10.98852 3.1603616,10.796032 2.9109482,10.641612 2.6325661,10.549376 2.5058384,10.507388 2.4831029,10.50414 2.3120205,10.503583 c -0.151545,-4.93e-4 -0.1929756,0.0038 -0.2340357,0.02423 -0.055346,0.02754 -0.085708,0.08305 -0.072938,0.133349 0.023512,0.09261 0.1977811,0.261849 0.3733951,0.36262 0.191206,0.109719 0.432513,0.396261 0.6182145,0.734106 0.074119,0.134844 0.175031,0.349955 0.195165,0.416027 0.00572,0.01875 0.031903,0.07707 0.058195,0.129582 0.235654,0.470689 0.7000277,0.738658 1.4086228,0.812852 0.2143033,0.02244 0.7730115,0.0077 0.9884196,-0.02607 0.090026,-0.01412 0.1650649,-0.02469 0.1667541,-0.0235 0.00169,0.0012 0.00723,0.437615 0.012311,0.969828 0.00832,0.870842 0.00702,0.975252 -0.012944,1.04355 -0.030394,0.103977 -0.086247,0.175759 -0.1739931,0.223615 -0.063747,0.03477 -0.090936,0.04091 -0.1967317,0.04442 -0.1159474,0.0039 -0.1318483,7.67e-4 -0.286445,-0.05564 z"
     id="path10"
     transform="scale(32)" />
  <path
     style="fill:#161822;fill-opacity:0;stroke-width:0.0136402;fill-rule:evenodd"
     d="M 5.1560102,15.29255 C 3.7082592,14.764293 2.5046205,13.872454 1.5821605,12.644501 0.80428059,11.60901 0.27518734,10.327568 0.08970572,9.029838 0.02912017,8.6059488 0.01464319,8.3818122 0.01481876,7.8704177 0.01503806,7.2316216 0.0508186,6.8519864 0.16458995,6.2813299 0.52973486,4.4498294 1.5311581,2.8532335 3.0008525,1.7594005 c 1.717471,-1.27824287 3.936806,-1.7682137 6.172208,-1.36266125 0.2709014,0.0491476 0.7552547,0.17264825 1.0350345,0.26391364 0.666888,0.21754125 1.359397,0.55393581 1.938538,0.94166711 1.130867,0.7571096 2.010946,1.7660903 2.599161,2.9798503 0.378567,0.7811601 0.611256,1.6050837 0.709078,2.5107538 0.02997,0.2774846 0.04179,1.0110168 0.0211,1.3097187 -0.07829,1.1302225 -0.350806,2.1422952 -0.83917,3.1165392 -0.380482,0.75903 -0.835241,1.388705 -1.438939,1.992402 -0.432028,0.432029 -0.827934,0.748679 -1.33085,1.06443 -0.43983,0.276141 -0.961789,0.529428 -1.459506,0.70824 -0.143401,0.05152 -0.178049,0.05886 -0.279625,0.05928 -0.1872639,7.71e-4 -0.3017437,-0.06604 -0.3709976,-0.216511 l -0.031389,-0.0682 0.00497,-1.404945 c 0.00362,-1.023559 5.392e-4,-1.449378 -0.011358,-1.568628 -0.047772,-0.478852 -0.1882225,-0.837757 -0.4282561,-1.094362 -0.043997,-0.04703 -0.071249,-0.08552 -0.060558,-0.08552 0.048341,0 0.6790957,-0.0844 0.8598017,-0.11505 0.676298,-0.114703 1.168586,-0.289973 1.564401,-0.556974 0.206122,-0.139042 0.467782,-0.4029983 0.605267,-0.6105809 C 12.557099,9.1738301 12.72376,8.6082798 12.773465,7.8795598 12.840379,6.898485 12.689535,6.4188432 12.099969,5.7380514 12.03936,5.6680632 11.990954,5.603613 11.9924,5.5948288 c 0.0014,-0.00878 0.01848,-0.068145 0.03784,-0.1319132 0.06594,-0.2171381 0.09118,-0.3950903 0.09867,-0.6956522 0.0077,-0.3092542 -0.0096,-0.4945481 -0.07252,-0.77593 C 12.01456,3.8042498 11.920604,3.5134396 11.892822,3.485081 11.876862,3.468787 11.834692,3.464767 11.685747,3.465337 11.524556,3.4659544 11.478931,3.471397 11.355495,3.50472 10.969726,3.608867 10.396351,3.8888404 9.898865,4.2159784 L 9.7395806,4.3207232 9.5006513,4.2632792 C 8.3742235,3.9924602 7.1753835,3.9925242 6.0484544,4.2634634 L 5.8087587,4.3210916 5.686988,4.2395204 C 5.1225315,3.8614044 4.4652953,3.5528035 4.0648567,3.4778596 3.9157185,3.4499476 3.6871228,3.4542606 3.6565284,3.4855596 3.6291584,3.5135636 3.5349265,3.8059144 3.4935066,3.9913301 3.4411636,4.2256423 3.4168676,4.4451788 3.4169916,4.6827073 3.4171572,4.9993349 3.4547606,5.2699354 3.5311613,5.5042875 L 3.5641643,5.6055222 3.437517,5.7558712 C 2.9590536,6.3238813 2.8105301,6.788055 2.8351149,7.6385337 c 0.023943,0.8282621 0.1783278,1.4568798 0.4754613,1.9359577 0.1949204,0.3142761 0.4665374,0.5797716 0.7847575,0.7670716 0.3592002,0.211421 0.7769057,0.348132 1.3880423,0.454294 0.1475959,0.02564 0.7766536,0.109514 0.8213498,0.109514 0.010022,0 -0.01622,0.0406 -0.058315,0.09022 -0.1896951,0.223611 -0.3229962,0.514314 -0.3841329,0.837715 l -0.022842,0.120828 -0.1302897,0.0501 C 5.4619262,12.099294 5.160321,12.160256 4.9377655,12.160158 4.8060524,12.1601 4.6037856,12.127538 4.4770779,12.085988 4.1387493,11.975042 3.8632089,11.749716 3.6421845,11.40324 3.4822194,11.152479 3.4350875,11.087395 3.3418585,10.98852 3.1603616,10.796032 2.9109482,10.641612 2.6325661,10.549376 2.5058384,10.507388 2.4831029,10.50414 2.3120205,10.503583 c -0.151545,-4.93e-4 -0.1929756,0.0038 -0.2340357,0.02423 -0.055346,0.02754 -0.085708,0.08305 -0.072938,0.133349 0.023512,0.09261 0.1977811,0.261849 0.3733951,0.36262 0.191206,0.109719 0.432513,0.396261 0.6182145,0.734106 0.074119,0.134844 0.175031,0.349955 0.195165,0.416027 0.00572,0.01875 0.031903,0.07707 0.058195,0.129582 0.235654,0.470689 0.7000277,0.738658 1.4086228,0.812852 0.2143033,0.02244 0.7730115,0.0077 0.9884196,-0.02607 0.090026,-0.01412 0.1650649,-0.02469 0.1667541,-0.0235 0.00169,0.0012 0.00723,0.437615 0.012311,0.969828 0.00832,0.870842 0.00702,0.975252 -0.012944,1.04355 -0.030394,0.103977 -0.086247,0.175759 -0.1739931,0.223615 -0.063747,0.03477 -0.090936,0.04091 -0.1967317,0.04442 -0.1159474,0.0039 -0.1318483,7.67e-4 -0.286445,-0.05564 z"
     id="path11"
     transform="scale(32)" />
  <path
     style="fill:#161822;fill-opacity:1;fill-rule:evenodd;stroke-width:0.0136402"
     d="M 5.1560102,15.29255 C 3.7082592,14.764293 2.5046205,13.872454 1.5821605,12.644501 0.80428059,11.60901 0.27518734,10.327568 0.08970572,9.029838 0.02912017,8.6059488 0.01464319,8.3818122 0.01481876,7.8704177 0.01503806,7.2316216 0.0508186,6.8519864 0.16458995,6.2813299 0.52973486,4.4498294 1.5311581,2.8532335 3.0008525,1.7594005 c 1.717471,-1.27824287 3.936806,-1.7682137 6.172208,-1.36266125 0.2709014,0.0491476 0.7552547,0.17264825 1.0350345,0.26391364 0.666888,0.21754125 1.359397,0.55393581 1.938538,0.94166711 1.130867,0.7571096 2.010946,1.7660903 2.599161,2.9798503 0.378567,0.7811601 0.611256,1.6050837 0.709078,2.5107538 0.02997,0.2774846 0.04179,1.0110168 0.0211,1.3097187 -0.07829,1.1302225 -0.350806,2.1422952 -0.83917,3.1165392 -0.380482,0.75903 -0.835241,1.388705 -1.438939,1.992402 -0.432028,0.432029 -0.827934,0.748679 -1.33085,1.06443 -0.43983,0.276141 -0.961789,0.529428 -1.459506,0.70824 -0.143401,0.05152 -0.178049,0.05886 -0.279625,0.05928 -0.1872639,7.71e-4 -0.3017437,-0.06604 -0.3709976,-0.216511 l -0.031389,-0.0682 0.00497,-1.404945 c 0.00362,-1.023559 5.392e-4,-1.449378 -0.011358,-1.568628 -0.047772,-0.478852 -0.1882225,-0.837757 -0.4282561,-1.094362 -0.043997,-0.04703 -0.071249,-0.08552 -0.060558,-0.08552 0.048341,0 0.6790957,-0.0844 0.8598017,-0.11505 0.676298,-0.114703 1.168586,-0.289973 1.564401,-0.556974 0.206122,-0.139042 0.467782,-0.4029983 0.605267,-0.6105809 C 12.557099,9.1738301 12.72376,8.6082798 12.773465,7.8795598 12.840379,6.898485 12.689535,6.4188432 12.099969,5.7380514 12.03936,5.6680632 11.990954,5.603613 11.9924,5.5948288 c 0.0014,-0.00878 0.01848,-0.068145 0.03784,-0.1319132 0.06594,-0.2171381 0.09118,-0.3950903 0.09867,-0.6956522 0.0077,-0.3092542 -0.0096,-0.4945481 -0.07252,-0.77593 C 12.01456,3.8042498 11.920604,3.5134396 11.892822,3.485081 11.876862,3.468787 11.834692,3.464767 11.685747,3.465337 11.524556,3.4659544 11.478931,3.471397 11.355495,3.50472 10.969726,3.608867 10.396351,3.8888404 9.898865,4.2159784 L 9.7395806,4.3207232 9.5006513,4.2632792 C 8.3742235,3.9924602 7.1753835,3.9925242 6.0484544,4.2634634 L 5.8087587,4.3210916 5.686988,4.2395204 C 5.1225315,3.8614044 4.4652953,3.5528035 4.0648567,3.4778596 3.9157185,3.4499476 3.6871228,3.4542606 3.6565284,3.4855596 3.6291584,3.5135636 3.5349265,3.8059144 3.4935066,3.9913301 3.4411636,4.2256423 3.4168676,4.4451788 3.4169916,4.6827073 3.4171572,4.9993349 3.4547606,5.2699354 3.5311613,5.5042875 L 3.5641643,5.6055222 3.437517,5.7558712 C 2.9590536,6.3238813 2.8105301,6.788055 2.8351149,7.6385337 c 0.023943,0.8282621 0.1783278,1.4568798 0.4754613,1.9359577 0.1949204,0.3142761 0.4665374,0.5797716 0.7847575,0.7670716 0.3592002,0.211421 0.7769057,0.348132 1.3880423,0.454294 0.1475959,0.02564 0.7766536,0.109514 0.8213498,0.109514 0.010022,0 -0.01622,0.0406 -0.058315,0.09022 -0.1896951,0.223611 -0.3229962,0.514314 -0.3841329,0.837715 l -0.022842,0.120828 -0.1302897,0.0501 C 5.4619262,12.099294 5.160321,12.160256 4.9377655,12.160158 4.8060524,12.1601 4.6037856,12.127538 4.4770779,12.085988 4.1387493,11.975042 3.8632089,11.749716 3.6421845,11.40324 3.4822194,11.152479 3.4350875,11.087395 3.3418585,10.98852 3.1603616,10.796032 2.9109482,10.641612 2.6325661,10.549376 2.5058384,10.507388 2.4831029,10.50414 2.3120205,10.503583 c -0.151545,-4.93e-4 -0.1929756,0.0038 -0.2340357,0.02423 -0.055346,0.02754 -0.085708,0.08305 -0.072938,0.133349 0.023512,0.09261 0.1977811,0.261849 0.3733951,0.36262 0.191206,0.109719 0.432513,0.396261 0.6182145,0.734106 0.074119,0.134844 0.175031,0.349955 0.195165,0.416027 0.00572,0.01875 0.031903,0.07707 0.058195,0.129582 0.235654,0.470689 0.7000277,0.738658 1.4086228,0.812852 0.2143033,0.02244 0.7730115,0.0077 0.9884196,-0.02607 0.090026,-0.01412 0.1650649,-0.02469 0.1667541,-0.0235 0.00169,0.0012 0.00723,0.437615 0.012311,0.969828 0.00832,0.870842 0.00702,0.975252 -0.012944,1.04355 -0.030394,0.103977 -0.086247,0.175759 -0.1739931,0.223615 -0.063747,0.03477 -0.090936,0.04091 -0.1967317,0.04442 -0.1159474,0.0039 -0.1318483,7.67e-4 -0.286445,-0.05564 z"
     id="path12"
     transform="scale(32)" />
  <path
     style="fill:#161822;fill-opacity:1;fill-rule:evenodd;stroke-width:0.0136402"
     d="M 5.0990303,15.264533 C 4.2331189,14.936608 3.4934927,14.506391 2.7962489,13.92508 2.5678886,13.73469 2.1160161,13.284491 1.9079464,13.040068 0.80679873,11.746531 0.14001213,10.104367 0.03283142,8.422029 0.01463248,8.1363732 0.02336982,7.3495872 0.04751553,7.0997442 0.1798158,5.7307938 0.67469346,4.404978 1.453456,3.3331204 2.3010567,2.1665165 3.4785013,1.2762626 4.855925,0.76054815 5.4921431,0.52234485 6.1383621,0.37469343 6.8815004,0.2977343 c 0.2875449,-0.029778 1.1499877,-0.0338817 1.4458653,-0.00688 0.8337562,0.0760892 1.5717829,0.24511215 2.2915603,0.52481336 2.04984,0.79655574 3.622213,2.37034414 4.386516,4.39046554 0.239722,0.6336043 0.409696,1.3966817 0.455222,2.0436534 0.01792,0.2546872 0.01798,1.0633615 9.5e-5,1.2753623 -0.145095,1.7197571 -0.776265,3.2657561 -1.851521,4.5351551 -0.07297,0.08615 -0.258513,0.282973 -0.412307,0.437382 -0.413985,0.415641 -0.695377,0.648427 -1.14578,0.947857 -0.457939,0.304442 -0.922884,0.548204 -1.427086,0.748197 -0.326243,0.129407 -0.405129,0.15032 -0.53116,0.14082 C 9.9290855,15.32221 9.8322023,15.262 9.765193,15.130888 l -0.032883,-0.06434 -6.29e-5,-1.47019 c -5.9e-5,-1.384776 -0.0016,-1.480655 -0.026569,-1.650347 -0.031869,-0.216612 -0.089938,-0.424329 -0.1625784,-0.58156 -0.061281,-0.132643 -0.1090534,-0.206952 -0.2220581,-0.345409 -0.043879,-0.05376 -0.079781,-0.101333 -0.079781,-0.105712 0,-0.0044 0.014964,-0.008 0.033252,-0.008 0.051359,0 0.6321154,-0.07958 0.8533624,-0.116938 0.430576,-0.0727 0.857811,-0.19954 1.166241,-0.346245 0.306834,-0.145945 0.484314,-0.273754 0.7238,-0.5212321 0.399725,-0.4130633 0.624938,-0.9445679 0.730157,-1.7231727 0.03554,-0.2630018 0.05069,-0.8626614 0.02705,-1.0707652 C 12.718113,6.6250657 12.547785,6.263289 12.139372,5.7765998 11.994409,5.6038531 11.992612,5.6003877 12.014982,5.5366421 12.052502,5.4297232 12.104962,5.1797902 12.1188,5.0419918 12.13709,4.8599066 12.13704,4.4650674 12.118702,4.3167365 12.089512,4.080568 12.014786,3.7751399 11.93533,3.5672069 l -0.03608,-0.094414 -0.06279,-0.00942 c -0.117861,-0.017674 -0.369316,0.00325 -0.499942,0.04161 C 10.939946,3.6214288 10.354922,3.9105986 9.8540127,4.237766 L 9.7370162,4.314229 9.5743905,4.2749928 C 8.9210795,4.1173706 8.471611,4.0648913 7.7749361,4.0648913 c -0.6975215,0 -1.1536103,0.053364 -1.8005115,0.2106669 L 5.8107417,4.31536 5.6606991,4.216178 C 5.1795796,3.8981456 4.5915115,3.6109905 4.1995975,3.5027181 4.0825601,3.4703847 4.0392409,3.4654194 3.8709512,3.4650483 3.7122035,3.464698 3.6732066,3.468517 3.6555426,3.486143 3.6272518,3.514373 3.547933,3.7495609 3.4986832,3.9512466 c -0.066517,0.2723997 -0.086202,0.4797203 -0.078093,0.8224753 0.00763,0.3224301 0.031867,0.4976703 0.098158,0.7096541 0.018768,0.060017 0.034216,0.1128016 0.034329,0.1172991 1.127e-4,0.0045 -0.055568,0.075086 -0.1237352,0.1568627 -0.3718845,0.4461337 -0.5327813,0.8162418 -0.5863141,1.3486862 -0.032264,0.320898 -8.043e-4,0.9863546 0.063855,1.350724 0.2008455,1.1318129 0.7638555,1.816709 1.7658072,2.148088 0.344806,0.114039 0.7264645,0.191323 1.3221948,0.26774 0.1612958,0.02069 0.2954845,0.03922 0.2981972,0.04118 0.00271,0.002 -0.039368,0.0625 -0.093513,0.134534 -0.1673214,0.222615 -0.2636364,0.43884 -0.3337241,0.749203 -0.018497,0.08191 -0.041531,0.153814 -0.051187,0.15979 -0.036192,0.0224 -0.3496082,0.120596 -0.4707421,0.147488 -0.486455,0.107991 -0.9328223,0.02003 -1.2925945,-0.254735 C 3.8943449,11.730352 3.7767048,11.593604 3.5963773,11.321398 3.3177326,10.900781 3.0564017,10.689866 2.6325661,10.543524 c -0.089383,-0.03086 -0.139964,-0.03884 -0.2796249,-0.04409 -0.1908898,-0.0072 -0.2710389,0.0074 -0.3221136,0.05844 -0.092966,0.09297 0.031849,0.264438 0.3446306,0.473457 0.1944996,0.129976 0.3655371,0.31963 0.5357344,0.594044 0.083267,0.134254 0.2024644,0.370923 0.2653124,0.526783 0.213666,0.529883 0.6059071,0.817219 1.2906732,0.945481 0.1826369,0.03421 0.9404299,0.03405 1.1719957,-2.5e-4 0.085689,-0.01269 0.1591799,-0.01969 0.1633133,-0.01556 0.011683,0.01168 0.026152,1.724104 0.015826,1.873001 -0.013799,0.19897 -0.069593,0.293152 -0.2121753,0.358149 -0.0406,0.01851 -0.087719,0.02486 -0.1841432,0.02483 -0.1235356,-3.8e-5 -0.1386061,-0.0035 -0.3229646,-0.07328 z"
     id="path13"
     transform="scale(32)" />
</svg>
